# xmcd
#
# Track frame offsets:
#	150
#	16192
#	27962
#	38742
#	52090
#	63200
#	79397
#	89065
#	102550
#	113930
#	123315
#	135455
#	146045
#	154962
#	167342
#	178135
#
# Disc length: 2519
#
# Revision: 1
# Processed by: cddbd v1.5.1PL0 Copyright (c) Steve Scherf et al.
# Submitted via: FreeRIP 2.00 
# Normalized: r0:TDELIM( - )
#
DISCID=dd09d510
DTITLE=Various Artist - Superstarke Oldtimer
DYEAR=1900
DGENRE=Oldies
TTITLE0=Glenn Miller - In The Mood
TTITLE1=Platters - Only You
TTITLE2=Paul Anka - Diana
TTITLE3=Ben E. King - Stand By Me
TTITLE4=Fats Domino - Blueberry Hill
TTITLE5=Nina Simone - My Baby Just Cares for Me
TTITLE6=Pat Boone - Bernadine
TTITLE7=Trini Lopez - If I Had A Hammer
TTITLE8=Buddy Holly - Peggy Sue
TTITLE9=Ritchie Valens - La Bamba
TTITLE10=Jackie Wilson - Reet Petite
TTITLE11=Chubby Checker - Let´s Twist Again
TTITLE12=Eddi Cochran - Summertime Blues
TTITLE13=Bill Haley - See You Later Aligator
TTITLE14=Elvis Presley - Jailhouse Rock
TTITLE15=Chuck Berry - Roll Over Beethoven
EXTD=
EXTT0=
EXTT1=
EXTT2=
EXTT3=
EXTT4=
EXTT5=
EXTT6=
EXTT7=
EXTT8=
EXTT9=
EXTT10=
EXTT11=
EXTT12=
EXTT13=
EXTT14=
EXTT15=
PLAYORDER=
